<svg xmlns="http://www.w3.org/2000/svg" viewBox="0 0 320 180" width="320" height="180" role="img" aria-label="boltsniper">
  <defs>
    <linearGradient id="bg" x1="0" y1="0" x2="1" y2="1">
      <stop offset="0" stop-color="#a371f7"/>
      <stop offset="1" stop-color="#3b1a78"/>
    </linearGradient>
    <radialGradient id="glow" cx="0.5" cy="0.5" r="0.5">
      <stop offset="0" stop-color="#ffffff" stop-opacity="0.28"/>
      <stop offset="1" stop-color="#ffffff" stop-opacity="0"/>
    </radialGradient>
  </defs>
  <rect width="320" height="180" fill="url(#bg)"/>
  <rect width="320" height="180" fill="url(#glow)"/>
  <g opacity="0.14" fill="#000000">
    <rect x="0" y="0" width="18" height="180"/>
    <rect x="36" y="0" width="18" height="180"/>
    <rect x="72" y="0" width="18" height="180"/>
    <rect x="108" y="0" width="18" height="180"/>
    <rect x="144" y="0" width="18" height="180"/>
    <rect x="180" y="0" width="18" height="180"/>
    <rect x="216" y="0" width="18" height="180"/>
    <rect x="252" y="0" width="18" height="180"/>
    <rect x="288" y="0" width="18" height="180"/>
  </g>
  <g>
    <polygon points="24,86 86,84 86,112 24,109" fill="#12161f"/>
    <rect x="84" y="84" width="74" height="26" rx="3" fill="#12161f"/>
    <rect x="96" y="58" width="78" height="12" rx="2" fill="#12161f"/><rect x="169" y="56" width="6" height="16" rx="2" fill="#12161f"/><rect x="171" y="58" width="3" height="12" rx="1" fill="#e2e8f0"/><rect x="100" y="70" width="4" height="6" rx="1" fill="#12161f"/><rect x="162" y="70" width="4" height="6" rx="1" fill="#12161f"/>
    <line x1="150" y1="84" x2="166" y2="70" stroke="#12161f" stroke-width="5" stroke-linecap="round"/>
    <circle cx="166" cy="70" r="5" fill="#12161f"/>
    <rect x="158" y="92" width="118" height="8" rx="1" fill="#12161f"/>
    <rect x="272" y="90" width="12" height="12" rx="2" fill="#12161f"/>
    <polygon points="126,110 146,110 144,130 128,130" fill="#12161f"/>
    <polygon points="284,96 302,87 297,96 302,105" fill="#a371f7"/><circle cx="286" cy="96" r="4" fill="#a371f7"/>
  </g>
</svg>
