<svg xmlns="http://www.w3.org/2000/svg" viewBox="0 0 320 180" width="320" height="180" role="img" aria-label="grenadelauncher">
  <defs>
    <linearGradient id="bg" x1="0" y1="0" x2="1" y2="1">
      <stop offset="0" stop-color="#a371f7"/>
      <stop offset="1" stop-color="#3b1a78"/>
    </linearGradient>
    <radialGradient id="glow" cx="0.5" cy="0.5" r="0.5">
      <stop offset="0" stop-color="#ffffff" stop-opacity="0.28"/>
      <stop offset="1" stop-color="#ffffff" stop-opacity="0"/>
    </radialGradient>
  </defs>
  <rect width="320" height="180" fill="url(#bg)"/>
  <rect width="320" height="180" fill="url(#glow)"/>
  <g opacity="0.14" fill="#000000">
    <rect x="0" y="0" width="18" height="180"/>
    <rect x="36" y="0" width="18" height="180"/>
    <rect x="72" y="0" width="18" height="180"/>
    <rect x="108" y="0" width="18" height="180"/>
    <rect x="144" y="0" width="18" height="180"/>
    <rect x="180" y="0" width="18" height="180"/>
    <rect x="216" y="0" width="18" height="180"/>
    <rect x="252" y="0" width="18" height="180"/>
    <rect x="288" y="0" width="18" height="180"/>
  </g>
  <g>
    <polygon points="30,84 74,82 74,108 30,105" fill="#12161f"/>
    <rect x="72" y="78" width="40" height="34" rx="3" fill="#12161f"/>
    <circle cx="128" cy="95" r="30" fill="#12161f"/>
    <circle cx="128" cy="95" r="20" fill="none" stroke="#e2e8f0" stroke-width="4"/>
    <circle cx="148" cy="95" r="6" fill="#0b0e14"/>
    <circle cx="134.18033988749895" cy="114.02113032590307" r="6" fill="#0b0e14"/>
    <circle cx="111.81966011250105" cy="106.75570504584947" r="6" fill="#0b0e14"/>
    <circle cx="111.81966011250105" cy="83.24429495415055" r="6" fill="#0b0e14"/>
    <circle cx="134.18033988749895" cy="75.97886967409693" r="6" fill="#0b0e14"/>
    <rect x="158" y="84.5" width="84" height="15" rx="1" fill="#12161f"/>
    <rect x="238" y="82" width="16" height="20" rx="2" fill="#12161f"/>
    <polygon points="104,116 118,116 111,142 96,142" fill="#12161f"/>
    <rect x="96" y="58" width="60" height="8" rx="2" fill="#12161f"/>
    <polygon points="256,92 274,83 269,92 274,101" fill="#a371f7"/><circle cx="258" cy="92" r="4" fill="#a371f7"/>
  </g>
</svg>
