<svg xmlns="http://www.w3.org/2000/svg" viewBox="0 0 320 180" width="320" height="180" role="img" aria-label="huntingrifle">
  <defs>
    <linearGradient id="bg" x1="0" y1="0" x2="1" y2="1">
      <stop offset="0" stop-color="#3fb950"/>
      <stop offset="1" stop-color="#14532d"/>
    </linearGradient>
    <radialGradient id="glow" cx="0.5" cy="0.5" r="0.5">
      <stop offset="0" stop-color="#ffffff" stop-opacity="0.28"/>
      <stop offset="1" stop-color="#ffffff" stop-opacity="0"/>
    </radialGradient>
  </defs>
  <rect width="320" height="180" fill="url(#bg)"/>
  <rect width="320" height="180" fill="url(#glow)"/>
  <g opacity="0.14" fill="#000000">
    <rect x="0" y="0" width="18" height="180"/>
    <rect x="36" y="0" width="18" height="180"/>
    <rect x="72" y="0" width="18" height="180"/>
    <rect x="108" y="0" width="18" height="180"/>
    <rect x="144" y="0" width="18" height="180"/>
    <rect x="180" y="0" width="18" height="180"/>
    <rect x="216" y="0" width="18" height="180"/>
    <rect x="252" y="0" width="18" height="180"/>
    <rect x="288" y="0" width="18" height="180"/>
  </g>
  <g>
    <polygon points="30,86 96,84 96,112 30,109" fill="#12161f"/>
    <rect x="94" y="86" width="52" height="24" rx="3" fill="#12161f"/>
    <line x1="138" y1="86" x2="152" y2="74" stroke="#12161f" stroke-width="5" stroke-linecap="round"/>
    <circle cx="152" cy="74" r="5" fill="#12161f"/>
    <rect x="146" y="92" width="124" height="8" rx="1" fill="#12161f"/>
    <rect x="146" y="88" width="44" height="9" rx="3" fill="#12161f"/>
    <rect x="160" y="82" width="3" height="6" rx="1" fill="#12161f"/><rect x="258" y="83" width="3" height="5" rx="1" fill="#12161f"/>
    <polygon points="272,96 290,87 285,96 290,105" fill="#3fb950"/><circle cx="274" cy="96" r="4" fill="#3fb950"/>
  </g>
</svg>
