<svg xmlns="http://www.w3.org/2000/svg" viewBox="0 0 320 180" width="320" height="180" role="img" aria-label="scar">
  <defs>
    <linearGradient id="bg" x1="0" y1="0" x2="1" y2="1">
      <stop offset="0" stop-color="#f0883e"/>
      <stop offset="1" stop-color="#7c2d12"/>
    </linearGradient>
    <radialGradient id="glow" cx="0.5" cy="0.5" r="0.5">
      <stop offset="0" stop-color="#ffffff" stop-opacity="0.28"/>
      <stop offset="1" stop-color="#ffffff" stop-opacity="0"/>
    </radialGradient>
  </defs>
  <rect width="320" height="180" fill="url(#bg)"/>
  <rect width="320" height="180" fill="url(#glow)"/>
  <g opacity="0.14" fill="#000000">
    <rect x="0" y="0" width="18" height="180"/>
    <rect x="36" y="0" width="18" height="180"/>
    <rect x="72" y="0" width="18" height="180"/>
    <rect x="108" y="0" width="18" height="180"/>
    <rect x="144" y="0" width="18" height="180"/>
    <rect x="180" y="0" width="18" height="180"/>
    <rect x="216" y="0" width="18" height="180"/>
    <rect x="252" y="0" width="18" height="180"/>
    <rect x="288" y="0" width="18" height="180"/>
  </g>
  <g>
    <polygon points="38,84 84,82 84,106 38,103" fill="#12161f"/>
    <rect x="80" y="80" width="90" height="26" rx="3" fill="#12161f"/>
    <rect x="96" y="74" width="66" height="5" rx="1" fill="#12161f"/>
    <rect x="170" y="88" width="78" height="8" rx="1" fill="#12161f"/>
    <rect x="170" y="84" width="52" height="11" rx="3" fill="#12161f"/>
    <rect x="252" y="85.5" width="16" height="13" rx="2" fill="#12161f"/>
    <polygon points="126,106 140,106 133,132 118,132" fill="#12161f"/>
    <path d="M 152 106 L 172 106 L 176 136 L 154 139 Z" fill="#12161f"/>
    <rect x="104" y="68" width="3" height="6" rx="1" fill="#12161f"/><rect x="232" y="69" width="3" height="5" rx="1" fill="#12161f"/>
    <polygon points="268,92 286,83 281,92 286,101" fill="#f0883e"/><circle cx="270" cy="92" r="4" fill="#f0883e"/>
  </g>
</svg>
